<?xml version="1.0" standalone="no"?>
<!DOCTYPE svg PUBLIC "-//W3C//DTD SVG 20010904//EN"
 "http://www.w3.org/TR/2001/REC-SVG-20010904/DTD/svg10.dtd">
<svg version="1.0" xmlns="http://www.w3.org/2000/svg"
 width="50.000000pt" height="50.000000pt" viewBox="0 0 50.000000 50.000000"
 preserveAspectRatio="xMidYMid meet">

<g transform="translate(0.000000,50.000000) scale(0.100000,-0.100000)"
fill="#000000" stroke="none">
<path d="M100 250 l0 -220 50 0 50 0 0 73 c0 110 12 111 87 12 l64 -85 49 0
c28 0 50 4 50 8 0 5 -36 57 -80 115 -44 59 -80 110 -80 114 0 5 34 49 75 98
41 50 75 93 75 98 0 4 -24 7 -53 7 l-53 0 -64 -77 -65 -77 -3 77 -3 77 -49 0
-50 0 0 -220z m80 110 c0 -49 3 -90 8 -90 4 0 40 41 81 90 61 75 78 90 102 90
16 0 29 -3 29 -6 0 -3 -32 -43 -71 -90 l-71 -84 58 -78 c31 -42 69 -92 82
-110 l24 -32 -31 0 c-27 0 -38 10 -93 85 -35 46 -68 84 -74 85 -24 0 -44 -49
-44 -110 l0 -60 -30 0 -30 0 0 200 0 200 30 0 30 0 0 -90z"/>
</g>
</svg>
