<?xml version="1.0" standalone="no"?>
<!DOCTYPE svg PUBLIC "-//W3C//DTD SVG 20010904//EN"
 "http://www.w3.org/TR/2001/REC-SVG-20010904/DTD/svg10.dtd">
<svg version="1.0" xmlns="http://www.w3.org/2000/svg"
 width="500.000000pt" height="500.000000pt" viewBox="0 0 500.000000 500.000000"
 preserveAspectRatio="xMidYMid meet">

<g transform="translate(0.000000,500.000000) scale(0.100000,-0.100000)"
fill="#000000" stroke="none">
<path d="M3660 4799 c-413 -59 -557 -79 -1200 -169 -201 -28 -554 -77 -785
-109 -231 -33 -543 -76 -694 -97 l-274 -38 7 -271 c4 -148 13 -517 21 -820 40
-1499 57 -2124 70 -2595 8 -283 15 -526 15 -539 l0 -24 138 7 c75 3 333 13
572 21 1179 41 1610 56 1885 65 563 19 870 32 874 36 2 2 -4 164 -13 361 -28
612 -32 706 -76 1693 -11 245 -29 648 -40 895 -11 248 -29 662 -40 920 -28
633 -33 718 -45 721 -5 1 -192 -25 -415 -57z m-1628 -1440 l3 -522 175 267
c96 146 250 381 342 521 l168 255 311 0 c294 0 311 -1 298 -17 -16 -19 -294
-354 -798 -957 -184 -220 -334 -405 -335 -412 -1 -7 339 -313 754 -679 415
-367 768 -679 784 -695 l30 -29 -485 -1 -484 0 -135 227 c-75 126 -234 395
-355 599 -121 205 -221 369 -223 365 -1 -4 52 -272 118 -595 66 -324 120 -591
120 -593 0 -1 -175 -3 -390 -3 l-390 0 0 1395 0 1395 245 0 245 0 2 -521z"/>
</g>
</svg>
